<?xml version="1.0" encoding="UTF-8"?>
<svg version="1.1" xmlns="http://www.w3.org/2000/svg" width="1462" height="1462">
<path d="M0 0 C482.46 0 964.92 0 1462 0 C1462 482.46 1462 964.92 1462 1462 C979.54 1462 497.08 1462 0 1462 C0 979.54 0 497.08 0 0 Z " fill="#FEFEFE" transform="translate(0,0)"/>
<path d="M0 0 C1.38276123 -0.00773438 1.38276123 -0.00773438 2.79345703 -0.015625 C8.71989598 0.04390515 14.00810652 0.84187218 19.75 2.3125 C19.75 2.9725 19.75 3.6325 19.75 4.3125 C21.420625 4.5290625 21.420625 4.5290625 23.125 4.75 C26.75 5.3125 26.75 5.3125 28.75 6.3125 C28.75 6.9725 28.75 7.6325 28.75 8.3125 C29.636875 8.539375 30.52375 8.76625 31.4375 9 C35.32783354 10.54145291 37.14081879 12.05102349 39.75 15.3125 C40.68713369 17.65290641 41.21505118 19.83228277 41.75 22.3125 C42.41 22.3125 43.07 22.3125 43.75 22.3125 C46.86002517 32.03132865 46.34869757 42.32064019 44.75 52.3125 C44.09 52.3125 43.43 52.3125 42.75 52.3125 C42.61464844 52.89257812 42.47929688 53.47265625 42.33984375 54.0703125 C40.64897379 60.20604423 38.23985659 63.93921463 32.75 67.3125 C32.09 67.3125 31.43 67.3125 30.75 67.3125 C30.42 68.9625 30.09 70.6125 29.75 72.3125 C30.513125 72.580625 31.27625 72.84875 32.0625 73.125 C34.75 74.3125 34.75 74.3125 36.125 75.8125 C38.61824545 78.11395734 41.51385352 78.51872822 44.75 79.3125 C44.75 79.9725 44.75 80.6325 44.75 81.3125 C39 84.3125 39 84.3125 36.75 84.3125 C36.255 85.7975 36.255 85.7975 35.75 87.3125 C34.41666667 87.64583333 33.08333333 87.97916667 31.75 88.3125 C31.255 89.7975 31.255 89.7975 30.75 91.3125 C27.30555556 94.3125 27.30555556 94.3125 24.75 94.3125 C24.75 92.9925 24.75 91.6725 24.75 90.3125 C25.41 90.3125 26.07 90.3125 26.75 90.3125 C26.75 88.9925 26.75 87.6725 26.75 86.3125 C25.265 85.8175 25.265 85.8175 23.75 85.3125 C22.96588235 83.98689199 22.21760754 82.639868 21.4921875 81.28125 C19.30040413 78.2450133 18.26885891 77.41883522 14.54785156 76.65625 C10.63841674 76.52515027 6.7777421 76.61370583 2.875 76.8125 C1.50531217 76.8526706 0.13551131 76.8891652 -1.234375 76.921875 C-4.57580353 77.01599975 -7.91145039 77.14738246 -11.25 77.3125 C-11.25 76.6525 -11.25 75.9925 -11.25 75.3125 C-12.19875 75.374375 -13.1475 75.43625 -14.125 75.5 C-19.09327831 75.53060541 -23.5883902 73.88825543 -28.25 72.3125 C-28.25 71.6525 -28.25 70.9925 -28.25 70.3125 C-29.2709375 70.0340625 -29.2709375 70.0340625 -30.3125 69.75 C-34.389717 67.75476615 -37.45011875 64.88009063 -40.25 61.3125 C-40.953125 59.0859375 -40.953125 59.0859375 -41.25 57.3125 C-41.91 57.3125 -42.57 57.3125 -43.25 57.3125 C-47.06776304 44.90477013 -48.04029877 32.60691487 -43.25 20.3125 C-39.60787921 13.53061991 -33.77202438 9.22571463 -27.25 5.3125 C-26.26 5.3125 -25.27 5.3125 -24.25 5.3125 C-24.25 4.6525 -24.25 3.9925 -24.25 3.3125 C-16.11183074 0.73285389 -8.48958503 0.01140882 0 0 Z " fill="#090909" transform="translate(592.25,695.6875)"/>
<path d="M0 0 C7.92832572 -0.06979429 15.8565211 -0.12295948 23.785079 -0.15543652 C27.46742616 -0.17103114 31.1495617 -0.19215433 34.83178711 -0.22631836 C38.39148575 -0.25913541 41.95098203 -0.27689956 45.51082039 -0.28463173 C47.51643174 -0.2927971 49.52196273 -0.31618017 51.52745056 -0.33988953 C59.50320256 -0.34134627 66.74376356 -0.03524154 73.41015625 4.71875 C73.95542969 5.3065625 74.50070312 5.894375 75.0625 6.5 C75.63097656 7.0878125 76.19945312 7.675625 76.78515625 8.28125 C78 10 78 10 78 13 C78.66 13 79.32 13 80 13 C80 17.29 80 21.58 80 26 C79.34 26 78.68 26 78 26 C77.34 27.98 76.68 29.96 76 32 C75.34 32 74.68 32 74 32 C73.34 33.32 72.68 34.64 72 36 C71.01 36 70.02 36 69 36 C69 36.99 69 37.98 69 39 C69.74765625 39.08636719 70.4953125 39.17273438 71.265625 39.26171875 C74.53804162 40.14527124 75.5940853 41.24161942 77.75 43.8125 C78.63945312 44.84310547 78.63945312 44.84310547 79.546875 45.89453125 C82.67456916 50.42632467 82.46934684 55.67471849 82 61 C80.41108857 66.85911091 77.68496864 69.48988071 72.9375 72.93359375 C71 74 71 74 68 74 C68 74.66 68 75.32 68 76 C64.51404259 77.07093699 61.30643269 77.12068195 57.67089844 77.11352539 C56.38987244 77.11344986 55.10884644 77.11337433 53.78900146 77.11329651 C52.39579225 77.10819026 51.00258343 77.10297427 49.609375 77.09765625 C48.18019663 77.09579032 46.75101762 77.09436724 45.32183838 77.09336853 C41.56699852 77.08955715 37.81219757 77.07973867 34.05737305 77.06866455 C30.22314988 77.05842075 26.38892041 77.05386455 22.5546875 77.04882812 C15.03644063 77.03811514 7.51822577 77.02105531 0 77 C0.33 75.68 0.66 74.36 1 73 C1.99 73 2.98 73 4 73 C4 50.23 4 27.46 4 4 C3.01 4 2.02 4 1 4 C0.67 2.68 0.34 1.36 0 0 Z " fill="#070707" transform="translate(193,696)"/>
<path d="M0 0 C1.38058594 -0.01160156 1.38058594 -0.01160156 2.7890625 -0.0234375 C9.07251006 -0.00573765 14.89052697 0.79552133 21 2.25 C21 2.91 21 3.57 21 4.25 C21.66 4.29125 22.32 4.3325 23 4.375 C28.14979177 5.8770226 32.24111316 9.49111316 36 13.25 C36 14.24 36 15.23 36 16.25 C36.66 16.25 37.32 16.25 38 16.25 C39.51714839 19.28429677 39.14363916 22.42601667 39.125 25.75 C39.12886719 26.43964844 39.13273437 27.12929688 39.13671875 27.83984375 C39.12666646 32.99666707 39.12666646 32.99666707 38 35.25 C37.34 35.25 36.68 35.25 36 35.25 C35.9071875 36.11625 35.9071875 36.11625 35.8125 37 C34.65799152 40.19710041 32.78452021 41.3936532 30 43.25 C29.01 43.25 28.02 43.25 27 43.25 C27 44.24 27 45.23 27 46.25 C28.093125 46.353125 29.18625 46.45625 30.3125 46.5625 C33.99248586 47.24859906 34.83216417 47.43181342 37 50.25 C37.556875 50.765625 38.11375 51.28125 38.6875 51.8125 C40 53.25 40 53.25 40 55.25 C40.66 55.25 41.32 55.25 42 55.25 C43.12050151 58.61150452 43.13296652 61.21286726 43.125 64.75 C43.12886719 66.46703125 43.12886719 66.46703125 43.1328125 68.21875 C43 71.25 43 71.25 42 74.25 C41.34 74.25 40.68 74.25 40 74.25 C39.938125 74.806875 39.87625 75.36375 39.8125 75.9375 C37.78710328 81.70209068 31.09299917 86.12238826 26 89.25 C20.75619264 91.3984337 15.59675167 91.44988399 10 91.25 C10 91.91 10 92.57 10 93.25 C2.41 93.25 -5.18 93.25 -13 93.25 C-13 92.59 -13 91.93 -13 91.25 C-13.74765625 91.18941406 -14.4953125 91.12882813 -15.265625 91.06640625 C-16.74289062 90.94072266 -16.74289062 90.94072266 -18.25 90.8125 C-19.71179687 90.69068359 -19.71179687 90.69068359 -21.203125 90.56640625 C-23.56461753 90.29925416 -25.71901065 89.89628032 -28 89.25 C-28 88.59 -28 87.93 -28 87.25 C-33.99320151 85.79066252 -39.85845775 84.83490879 -46 84.25 C-45.67 81.94 -45.34 79.63 -45 77.25 C-44.34 77.25 -43.68 77.25 -43 77.25 C-42.34 74.28 -41.68 71.31 -41 68.25 C-40.34 68.25 -39.68 68.25 -39 68.25 C-38.855625 67.321875 -38.71125 66.39375 -38.5625 65.4375 C-38 62.25 -38 62.25 -37 59.25 C-36.01 59.25 -35.02 59.25 -34 59.25 C-33.814375 60.28125 -33.62875 61.3125 -33.4375 62.375 C-32.12095709 67.0349936 -29.02205876 69.7213639 -25 72.25 C-22.8656371 72.92796761 -22.8656371 72.92796761 -21 73.25 C-21 73.91 -21 74.57 -21 75.25 C-8.47265155 77.35354277 3.39347413 77.84360146 16 76.25 C16 75.59 16 74.93 16 74.25 C17.65532623 73.23133771 19.32260138 72.23189187 21 71.25 C22.73983582 67.77032837 22.57528728 64.04689607 22 60.25 C18.43015469 55.75890429 13.40435177 55.1448382 8 54.25 C8 53.59 8 52.93 8 52.25 C3.38 52.25 -1.24 52.25 -6 52.25 C-6 52.91 -6 53.57 -6 54.25 C-8.475 54.745 -8.475 54.745 -11 55.25 C-11 55.91 -11 56.57 -11 57.25 C-11.66 57.25 -12.32 57.25 -13 57.25 C-13 49.66 -13 42.07 -13 34.25 C-12.34 34.25 -11.68 34.25 -11 34.25 C-11 34.91 -11 35.57 -11 36.25 C-1.42049387 39.58200213 8.80438127 39.21873398 18 34.8125 C21.16364272 30.75908276 20.90494225 26.26213608 21 21.25 C19.515 20.755 19.515 20.755 18 20.25 C17.505 19.26 17.505 19.26 17 18.25 C14.88153715 17.56270746 14.88153715 17.56270746 12.4375 17.125 C11.61121094 16.95742188 10.78492188 16.78984375 9.93359375 16.6171875 C9.29550781 16.49601563 8.65742187 16.37484375 8 16.25 C8 15.59 8 14.93 8 14.25 C0.74 14.58 -6.52 14.91 -14 15.25 C-14 15.91 -14 16.57 -14 17.25 C-16.31 17.58 -18.62 17.91 -21 18.25 C-21.33 19.24 -21.66 20.23 -22 21.25 C-24.5625 22.4375 -24.5625 22.4375 -27 23.25 C-27.33 25.56 -27.66 27.87 -28 30.25 C-30.86207152 28.96700242 -33.0245088 27.719364 -35 25.25 C-35 24.26 -35 23.27 -35 22.25 C-35.99 21.92 -36.98 21.59 -38 21.25 C-40.75 18.9375 -40.75 18.9375 -43 16.25 C-42.8125 13.9375 -42.8125 13.9375 -42 12.25 C-39.69 12.25 -37.38 12.25 -35 12.25 C-34.67 11.26 -34.34 10.27 -34 9.25 C-32.35 8.92 -30.7 8.59 -29 8.25 C-28.67 7.26 -28.34 6.27 -28 5.25 C-24.535 4.755 -24.535 4.755 -21 4.25 C-21 3.59 -21 2.93 -21 2.25 C-13.92672794 0.56607026 -7.2606013 -0.06101346 0 0 Z " fill="#090909" transform="translate(1230,679.75)"/>
<path d="M0 0 C8.25 0 16.5 0 25 0 C25.495 4.455 25.495 4.455 26 9 C27.05117207 12.30064746 27.05117207 12.30064746 28.4375 15.25 C28.86933594 16.22453125 29.30117188 17.1990625 29.74609375 18.203125 C30.15988281 19.12609375 30.57367188 20.0490625 31 21 C31.34160156 21.92296875 31.68320312 22.8459375 32.03515625 23.796875 C32.79096673 26.16210777 32.79096673 26.16210777 35 27 C35.6328125 29.06640625 35.6328125 29.06640625 36.125 31.5625 C36.29257812 32.38878906 36.46015625 33.21507812 36.6328125 34.06640625 C36.75398438 34.70449219 36.87515625 35.34257813 37 36 C37.66 36 38.32 36 39 36 C39.99 39.96 39.99 39.96 41 44 C41.66 44 42.32 44 43 44 C43.99 47.96 43.99 47.96 45 52 C45.66 52 46.32 52 47 52 C47.50559908 53.43554025 48.0042749 54.8735202 48.5 56.3125 C48.7784375 57.11300781 49.056875 57.91351562 49.34375 58.73828125 C50 61 50 61 50 64 C50.66 64 51.32 64 52 64 C52.26554687 64.56589844 52.53109375 65.13179687 52.8046875 65.71484375 C53.15789062 66.44832031 53.51109375 67.18179688 53.875 67.9375 C54.22304688 68.66839844 54.57109375 69.39929688 54.9296875 70.15234375 C55.8684977 72.16332459 55.8684977 72.16332459 58 73 C58 74.32 58 75.64 58 77 C49.75 77 41.5 77 33 77 C33 76.01 33 75.02 33 74 C33.66 73.67 34.32 73.34 35 73 C35 70.36 35 67.72 35 65 C34.34 65 33.68 65 33 65 C31.74335022 62.09399739 31 60.20395416 31 57 C18.46 57 5.92 57 -7 57 C-7.33 58.32 -7.66 59.64 -8 61 C-8.66 61 -9.32 61 -10 61 C-10.33548767 62.79126452 -10.66832355 64.58302587 -11 66.375 C-11.185625 67.37273437 -11.37125 68.37046875 -11.5625 69.3984375 C-12.05527983 71.88903545 -12.05527983 71.88903545 -12 74 C-11.34 74 -10.68 74 -10 74 C-10 74.99 -10 75.98 -10 77 C-17.59 77 -25.18 77 -33 77 C-33 75.68 -33 74.36 -33 73 C-31.81834103 71.91962608 -30.63540181 70.84061163 -29.4453125 69.76953125 C-26.24086104 65.84624339 -24.76168146 60.70031606 -23 56 C-22.34 56 -21.68 56 -21 56 C-20.87625 55.05125 -20.7525 54.1025 -20.625 53.125 C-20 50 -20 50 -18 48 C-17.40165446 46.47943382 -16.86493344 44.93387912 -16.375 43.375 C-15.98441406 42.14910156 -15.98441406 42.14910156 -15.5859375 40.8984375 C-15.39257812 40.27195312 -15.19921875 39.64546875 -15 39 C-14.34 39 -13.68 39 -13 39 C-12.87625 38.13375 -12.7525 37.2675 -12.625 36.375 C-12.01941879 33.10486147 -11.11693965 30.12743101 -10 27 C-9.34 27 -8.68 27 -8 27 C-7.34 24.03 -6.68 21.06 -6 18 C-5.34 18 -4.68 18 -4 18 C-3.52466572 16.33633001 -3.04989765 14.67249598 -2.578125 13.0078125 C-2.02985092 11.10367143 -1.453216 9.20776356 -0.875 7.3125 C0.17026075 3.92646104 0.17026075 3.92646104 0 0 Z " fill="#070707" transform="translate(324,696)"/>
<path d="M0 0 C0.93328125 -0.00773438 1.8665625 -0.01546875 2.828125 -0.0234375 C8.84591908 -0.00662802 14.17234964 0.74531978 20 2.25 C20 2.91 20 3.57 20 4.25 C21.11375 4.394375 22.2275 4.53875 23.375 4.6875 C27 5.25 27 5.25 29 6.25 C29 6.91 29 7.57 29 8.25 C32.63 8.25 36.26 8.25 40 8.25 C40 9.24 40 10.23 40 11.25 C39.34 11.25 38.68 11.25 38 11.25 C37.814375 12.61125 37.814375 12.61125 37.625 14 C37.07890323 16.83970323 36.42736197 18.77590591 35 21.25 C34.34 21.25 33.68 21.25 33 21.25 C32.67 22.57 32.34 23.89 32 25.25 C30.68 25.25 29.36 25.25 28 25.25 C27.814375 24.30125 27.62875 23.3525 27.4375 22.375 C26.26599195 18.86628301 26.26599195 18.86628301 22.375 17.875 C21.26125 17.66875 20.1475 17.4625 19 17.25 C19 16.59 19 15.93 19 15.25 C2.42104181 13.37062856 2.42104181 13.37062856 -14 15.25 C-14.99 16.735 -14.99 16.735 -16 18.25 C-16.66 18.25 -17.32 18.25 -18 18.25 C-17.67 20.56 -17.34 22.87 -17 25.25 C-15.02 25.91 -13.04 26.57 -11 27.25 C-11 27.91 -11 28.57 -11 29.25 C-2.42 29.91 6.16 30.57 15 31.25 C15 31.91 15 32.57 15 33.25 C15.556875 33.28738281 16.11375 33.32476563 16.6875 33.36328125 C22.28625424 33.84560636 26.81665364 35.08241879 32 37.25 C32 37.91 32 38.57 32 39.25 C33.98 39.745 33.98 39.745 36 40.25 C36.495 42.23 36.495 42.23 37 44.25 C37.66 44.25 38.32 44.25 39 44.25 C40.04976964 47.39930893 40.10131595 49.63814456 40.0625 52.9375 C40.05347656 53.93136719 40.04445313 54.92523437 40.03515625 55.94921875 C40.02355469 56.70847656 40.01195312 57.46773437 40 58.25 C39.34 58.25 38.68 58.25 38 58.25 C37.9175 59.136875 37.835 60.02375 37.75 60.9375 C36.8769726 64.79337101 35.82344766 66.50286174 33 69.25 C29.75 70.5625 29.75 70.5625 27 71.25 C27 71.91 27 72.57 27 73.25 C23.535 73.745 23.535 73.745 20 74.25 C20 74.91 20 75.57 20 76.25 C14.29552216 77.45857581 8.67727066 77.43368773 2.875 77.4375 C1.88628906 77.44974609 0.89757812 77.46199219 -0.12109375 77.47460938 C-1.55001953 77.47750977 -1.55001953 77.47750977 -3.0078125 77.48046875 C-4.30162842 77.48663208 -4.30162842 77.48663208 -5.62158203 77.49291992 C-8.19639722 77.22994095 -9.75167073 76.48731777 -12 75.25 C-13.90485849 74.81901247 -15.82356582 74.44607236 -17.75 74.125 C-18.73484375 73.95742188 -19.7196875 73.78984375 -20.734375 73.6171875 C-21.85585938 73.43542969 -21.85585938 73.43542969 -23 73.25 C-23 72.59 -23 71.93 -23 71.25 C-27.65499974 70.43537505 -32.30976546 69.81606279 -37 69.25 C-36.34 66.28 -35.68 63.31 -35 60.25 C-34.34 60.25 -33.68 60.25 -33 60.25 C-32.86722656 59.55132813 -32.73445313 58.85265625 -32.59765625 58.1328125 C-32.33275391 56.76769531 -32.33275391 56.76769531 -32.0625 55.375 C-31.88847656 54.47007812 -31.71445312 53.56515625 -31.53515625 52.6328125 C-31 50.25 -31 50.25 -30 48.25 C-28.68 48.58 -27.36 48.91 -26 49.25 C-26 51.23 -26 53.21 -26 55.25 C-21.22393318 57.73355475 -16.307213 60.1885574 -11 61.25 C-11 61.91 -11 62.57 -11 63.25 C-2.42 63.25 6.16 63.25 15 63.25 C15 62.59 15 61.93 15 61.25 C15.969375 60.775625 16.93875 60.30125 17.9375 59.8125 C20.80477437 58.54806053 20.80477437 58.54806053 22 57.25 C22.04080783 55.25041636 22.04254356 53.24954746 22 51.25 C17.9811485 49.43757677 14.38889325 47.91498383 10 47.25 C10 46.59 10 45.93 10 45.25 C9.13048706 45.21241577 9.13048706 45.21241577 8.2434082 45.17407227 C5.59957893 45.05753766 2.95605591 44.93507318 0.3125 44.8125 C-0.59951172 44.77318359 -1.51152344 44.73386719 -2.45117188 44.69335938 C-3.78051758 44.63051758 -3.78051758 44.63051758 -5.13671875 44.56640625 C-5.94842529 44.52974854 -6.76013184 44.49309082 -7.59643555 44.45532227 C-10.12144485 44.23962569 -12.52600697 43.79100548 -15 43.25 C-15 42.59 -15 41.93 -15 41.25 C-16.216875 41.12625 -17.43375 41.0025 -18.6875 40.875 C-25.39500261 39.97909455 -28.48174742 38.117565 -32.765625 32.90625 C-35.14606302 29.71224455 -35.10827029 27.56124527 -35.0625 23.625 C-35.05347656 22.62210938 -35.04445313 21.61921875 -35.03515625 20.5859375 C-35.01775391 19.42964844 -35.01775391 19.42964844 -35 18.25 C-34.34 18.25 -33.68 18.25 -33 18.25 C-32.938125 17.38375 -32.87625 16.5175 -32.8125 15.625 C-31.7724689 11.30487082 -30.20186385 9.31265238 -27 6.25 C-24.63651317 5.22239703 -22.55315339 4.75061831 -20 4.25 C-20 3.59 -20 2.93 -20 2.25 C-13.20588425 0.49578159 -7.00291198 -0.05803518 0 0 Z " fill="#090909" transform="translate(430,695.75)"/>
<path d="M0 0 C1.32 0 2.64 0 4 0 C4 5.94 4 11.88 4 18 C2.68 18 1.36 18 0 18 C-0.33 17.67 -0.66 17.34 -1 17 C-2.44184293 16.87778475 -3.88943144 16.82227242 -5.33618164 16.79467773 C-6.2570607 16.77473251 -7.17793976 16.75478729 -8.12672424 16.73423767 C-9.12775681 16.71752518 -10.12878937 16.70081268 -11.16015625 16.68359375 C-12.17975937 16.66281265 -13.19936249 16.64203156 -14.24986267 16.62062073 C-17.52067048 16.55501148 -20.79156137 16.49618766 -24.0625 16.4375 C-26.27409728 16.39432558 -28.48568603 16.35071166 -30.69726562 16.30664062 C-36.13142436 16.19931855 -41.56566698 16.09808355 -47 16 C-47 21.94 -47 27.88 -47 34 C-42.49745616 33.88010223 -37.99516515 33.75745132 -33.49291992 33.62768555 C-31.96138982 33.58438167 -30.42981285 33.54270333 -28.89819336 33.50268555 C-26.69630818 33.44487268 -24.49465789 33.38121031 -22.29296875 33.31640625 C-21.60849167 33.29969376 -20.92401459 33.28298126 -20.21879578 33.26576233 C-17.22879896 33.1726445 -14.85937689 32.95312563 -12 32 C-12 37.28 -12 42.56 -12 48 C-29.325 47.505 -29.325 47.505 -47 47 C-47 53.6 -47 60.2 -47 67 C-31.16 66.67 -15.32 66.34 1 66 C1.33 65.34 1.66 64.68 2 64 C2.99 64 3.98 64 5 64 C5 69.61 5 75.22 5 81 C-18.43 80.67 -41.86 80.34 -66 80 C-66 78.68 -66 77.36 -66 76 C-65.34 76 -64.68 76 -64 76 C-64 52.9 -64 29.8 -64 6 C-64.66 6 -65.32 6 -66 6 C-66 5.01 -66 4.02 -66 3 C-44.55 3 -23.1 3 -1 3 C-0.67 2.01 -0.34 1.02 0 0 Z " fill="#060606" transform="translate(843,693)"/>
<path d="M0 0 C1.32 0.33 2.64 0.66 4 1 C6.62312205 1.09420324 9.21918981 1.13658557 11.84204102 1.12939453 C12.62784546 1.13114685 13.4136499 1.13289917 14.2232666 1.13470459 C16.81683571 1.13910055 19.41033646 1.13619333 22.00390625 1.1328125 C23.80704257 1.13348612 25.61017881 1.13445663 27.41331482 1.13571167 C31.19018418 1.13718553 34.96702988 1.13504383 38.74389648 1.13037109 C43.58847973 1.12466991 48.43300762 1.12795725 53.27758884 1.13394356 C56.99985675 1.13755408 60.7221115 1.13640838 64.44437981 1.13381577 C66.23098698 1.13314807 68.01759534 1.13396944 69.80420113 1.13629532 C72.29861756 1.13883031 74.79294381 1.13496942 77.28735352 1.12939453 C78.39786324 1.13243088 78.39786324 1.13243088 79.5308075 1.13552856 C82.63001669 1.12267468 85.03580085 0.98806638 88 0 C88.72546394 15.65792998 88.72546394 15.65792998 84 22 C82.92147241 23.74016795 81.85987887 25.49090826 80.8125 27.25 C80.30332031 28.08015625 79.79414062 28.9103125 79.26953125 29.765625 C77.87507729 32.0519145 77.87507729 32.0519145 77 35 C76.01 35.495 76.01 35.495 75 36 C72.83152429 39.59153789 70.81595138 43.21676796 69 47 C68.34 47 67.68 47 67 47 C66.81824219 47.63808594 66.63648438 48.27617188 66.44921875 48.93359375 C66.19785156 49.75988281 65.94648437 50.58617187 65.6875 51.4375 C65.44386719 52.26121094 65.20023438 53.08492187 64.94921875 53.93359375 C64.63597656 54.61550781 64.32273437 55.29742188 64 56 C63.01 56.33 62.02 56.66 61 57 C60.95875 57.66 60.9175 58.32 60.875 59 C59.82221468 62.60954968 58.06562111 64.68626402 55.76171875 67.609375 C51.87986792 72.87698633 48.07530063 78.7740981 46 85 C45.01 85.495 45.01 85.495 44 86 C43.34444881 88.52733235 43.34444881 88.52733235 43 91 C43.66 91 44.32 91 45 91 C45 91.99 45 92.98 45 94 C34.77 94 24.54 94 14 94 C14 93.01 14 92.02 14 91 C15.11375 90.814375 16.2275 90.62875 17.375 90.4375 C18.57125 89.963125 19.7675 89.48875 21 89 C22.31001496 85.49895468 22.31001496 85.49895468 23 82 C24.485 81.505 24.485 81.505 26 81 C26.144375 80.21625 26.28875 79.4325 26.4375 78.625 C27 76 27 76 28 74 C28.66 74 29.32 74 30 74 C30.66 72.02 31.32 70.04 32 68 C32.66 68 33.32 68 34 68 C34.28875 66.865625 34.5775 65.73125 34.875 64.5625 C35.24625 63.386875 35.6175 62.21125 36 61 C36.66 60.67 37.32 60.34 38 60 C39.13350534 57.98330173 39.13350534 57.98330173 40 56 C40.66 56 41.32 56 42 56 C42.144375 55.38125 42.28875 54.7625 42.4375 54.125 C43 52 43 52 44 50 C44.66 50 45.32 50 46 50 C46.10183594 49.45859375 46.20367188 48.9171875 46.30859375 48.359375 C47.17757607 45.39403419 48.55472291 42.94475054 50.0625 40.25 C50.61035156 39.26515625 51.15820312 38.2803125 51.72265625 37.265625 C52.14417969 36.51796875 52.56570313 35.7703125 53 35 C53.66 35 54.32 35 55 35 C55.309375 34.05125 55.61875 33.1025 55.9375 32.125 C57 29 57 29 58 27 C58.66 27 59.32 27 60 27 C60.66 25.02 61.32 23.04 62 21 C62.66 21 63.32 21 64 21 C64 20.01 64 19.02 64 18 C44.53 18 25.06 18 5 18 C5 18.66 5 19.32 5 20 C4.34 20 3.68 20 3 20 C3 20.66 3 21.32 3 22 C2.01 22 1.02 22 0 22 C0 14.74 0 7.48 0 0 Z " fill="#070707" transform="translate(918,679)"/>
<path d="M0 0 C8.25 0 16.5 0 25 0 C25 0.99 25 1.98 25 3 C23.68 3.33 22.36 3.66 21 4 C21.04170882 10.5841172 21.11407386 17.16739182 21.20751953 23.75097656 C21.23570362 25.98950591 21.25693086 28.2281343 21.27099609 30.46679688 C21.29246048 33.68931694 21.3391306 36.91064938 21.390625 40.1328125 C21.39185364 41.12991241 21.39308228 42.12701233 21.39434814 43.15432739 C21.54149633 50.17287508 22.7254428 53.7254428 27.75 58.75 C31.03807032 60.57670573 34.32721252 61.20422938 38 62 C38 62.66 38 63.32 38 64 C40.68893267 63.91228454 43.37485308 63.80532075 46.0625 63.6875 C46.81466797 63.66494141 47.56683594 63.64238281 48.34179688 63.61914062 C53.57181756 63.37009202 57.29008184 62.28359669 62 60 C63.32276056 59.62691369 64.65232077 59.26953585 66 59 C66.66 56.69 67.32 54.38 68 52 C68.66 52 69.32 52 70 52 C70.33 36.16 70.66 20.32 71 4 C69.35 3.34 67.7 2.68 66 2 C66 1.34 66 0.68 66 0 C73.92 0 81.84 0 90 0 C90 0.99 90 1.98 90 3 C88.68 3 87.36 3 86 3 C86.00444122 3.63813629 86.00888245 4.27627258 86.01345825 4.93374634 C86.05775919 11.58487709 86.08789459 18.23596581 86.10986328 24.88720703 C86.119911 27.36834415 86.13355144 29.84946945 86.15087891 32.33056641 C86.17518086 35.90009479 86.18649558 39.46946638 86.1953125 43.0390625 C86.20563507 44.14553131 86.21595764 45.25200012 86.22659302 46.39199829 C86.2273567 51.65281008 86.1532238 56.0900537 84 61 C83.34 61 82.68 61 82 61 C81.773125 61.7425 81.54625 62.485 81.3125 63.25 C78.71941798 68.68312422 73.19184423 71.3568793 68 74 C66.68 74 65.36 74 64 74 C64 74.66 64 75.32 64 76 C59.99908596 76.74984705 56.23250483 77.1195296 52.1640625 77.09765625 C51.10058594 77.09443359 50.03710938 77.09121094 48.94140625 77.08789062 C47.84699219 77.07951172 46.75257813 77.07113281 45.625 77.0625 C44.50738281 77.05798828 43.38976562 77.05347656 42.23828125 77.04882812 C39.49213196 77.03709244 36.74609414 77.02067363 34 77 C34 76.34 34 75.68 34 75 C33.39414062 74.98582031 32.78828125 74.97164062 32.1640625 74.95703125 C23.62680719 74.47106441 16.36406514 71.94169064 10.4375 65.5625 C8.06105951 62.50994546 7.19113941 59.91835787 7 56 C6.34 56 5.68 56 5 56 C4.67 38.51 4.34 21.02 4 3 C2.68 3 1.36 3 0 3 C0 2.01 0 1.02 0 0 Z " fill="#060606" transform="translate(659,696)"/>
<path d="M0 0 C9.57 0 19.14 0 29 0 C29 0.99 29 1.98 29 3 C27.68 3.33 26.36 3.66 25 4 C25 32.05 25 60.1 25 89 C25.99 89.495 25.99 89.495 27 90 C27 90.99 27 91.98 27 93 C17.76 93 8.52 93 -1 93 C-1 92.01 -1 91.02 -1 90 C0.32 90 1.64 90 3 90 C3.33 69.21 3.66 48.42 4 27 C0.37 28.32 -3.26 29.64 -7 31 C-7.66 31 -8.32 31 -9 31 C-9 24.07 -9 17.14 -9 10 C-7.02 10.99 -7.02 10.99 -5 12 C-2.11006775 12.35243076 -0.6421314 12.42070678 1.8125 10.8125 C3.36678206 8.44017475 3.22537188 6.77958655 3 4 C2.01 3.67 1.02 3.34 0 3 C0 2.01 0 1.02 0 0 Z " fill="#080808" transform="translate(1111,680)"/>
<path d="M0 0 C0 0.66 0 1.32 0 2 C0.721875 2.226875 1.44375 2.45375 2.1875 2.6875 C5.56432417 4.26335128 7.55767039 6.20876616 10 9 C10 9.66 10 10.32 10 11 C10.66 11 11.32 11 12 11 C13.86240268 14.96130094 14.27038625 18.13734227 14.25 22.5 C14.25773438 24.15515625 14.25773438 24.15515625 14.265625 25.84375 C13.81289657 31.22322897 11.97835555 34.37550042 8.375 38.3125 C7.74335937 39.00988281 7.11171875 39.70726562 6.4609375 40.42578125 C5.73777344 41.20501953 5.73777344 41.20501953 5 42 C1.20373324 41.35185689 -0.39736676 40.82894917 -3 38 C-3.70125 37.649375 -4.4025 37.29875 -5.125 36.9375 C-7 36 -7 36 -8 34 C-12.70095261 31.27041461 -17.74719188 31.81640671 -23 32 C-23 32.99 -23 33.98 -23 35 C-22.113125 35.391875 -21.22625 35.78375 -20.3125 36.1875 C-16.85337636 38.08022803 -14.5824059 40.03782853 -12 43 C-12 43.66 -12 44.32 -12 45 C-11.34 45 -10.68 45 -10 45 C-9.505 46.98 -9.505 46.98 -9 49 C-12.96 49 -16.92 49 -21 49 C-21 48.34 -21 47.68 -21 47 C-21.60328125 46.95101562 -22.2065625 46.90203125 -22.828125 46.8515625 C-23.62734375 46.77679687 -24.4265625 46.70203125 -25.25 46.625 C-26.03890625 46.55539062 -26.8278125 46.48578125 -27.640625 46.4140625 C-33.29013172 45.42259278 -35.46438849 42.35152186 -39 38 C-39.99 37.34 -40.98 36.68 -42 36 C-44.96794648 28.81444536 -45.24853232 20.05739405 -42.9375 12.625 C-40.07106477 6.16882346 -34.10123562 2.76554532 -27.9921875 -0.23828125 C-19.05368689 -3.65594325 -9.014549 -2.40387973 0 0 Z " fill="#FAFAFA" transform="translate(607,711)"/>
<path d="M0 0 C8.58 0 17.16 0 26 0 C26 0.99 26 1.98 26 3 C24.68 3 23.36 3 22 3 C22 25.77 22 48.54 22 72 C23.32 72.33 24.64 72.66 26 73 C26 74.32 26 75.64 26 77 C17.42 77 8.84 77 0 77 C0 75.68 0 74.36 0 73 C1.98 72.505 1.98 72.505 4 72 C4 49.23 4 26.46 4 3 C2.68 3 1.36 3 0 3 C0 2.01 0 1.02 0 0 Z " fill="#090909" transform="translate(497,696)"/>
<path d="M0 0 C5.07207799 -0.02295058 10.14397592 -0.04286558 15.21606445 -0.05493164 C16.9416566 -0.05996158 18.66724448 -0.06678626 20.39282227 -0.07543945 C22.8725693 -0.08756361 25.35226 -0.09324169 27.83203125 -0.09765625 C28.60400345 -0.10281754 29.37597565 -0.10797882 30.17134094 -0.11329651 C33.3830228 -0.11363318 35.93020266 -0.02326578 39 1 C39 1.66 39 2.32 39 3 C39.639375 3.12375 40.27875 3.2475 40.9375 3.375 C41.9584375 3.684375 41.9584375 3.684375 43 4 C44.7187269 7.4374538 44.51636079 11.24089344 44 15 C42.125 17.0625 42.125 17.0625 40 18 C39.34 18 38.68 18 38 18 C38 18.66 38 19.32 38 20 C25.46 20 12.92 20 0 20 C0 13.4 0 6.8 0 0 Z " fill="#F8F8F8" transform="translate(214,740)"/>
<path d="M0 0 C5.0539389 -0.0459449 10.10715137 -0.08575997 15.16113281 -0.10986328 C16.87990781 -0.1199127 18.59866575 -0.13355445 20.31738281 -0.15087891 C22.78975641 -0.17517391 25.26190369 -0.18649368 27.734375 -0.1953125 C28.50118591 -0.20563507 29.26799683 -0.21595764 30.05804443 -0.22659302 C33.844901 -0.22738704 36.83110124 -0.21069829 40 2 C42.79501022 5.63351329 42.34674193 9.63105173 42 14 C40.62741346 16.12750914 39.74975155 16.73849851 37.39355469 17.56030273 C33.92038533 18.19832579 30.47084377 18.12202871 26.953125 18.09765625 C26.18192322 18.0962413 25.41072144 18.09482635 24.6161499 18.09336853 C22.16072662 18.08778534 19.70539558 18.07523595 17.25 18.0625 C15.58203257 18.05748283 13.91406371 18.0529203 12.24609375 18.04882812 C8.16399864 18.03867366 4.0821022 18.01909507 0 18 C0 12.06 0 6.12 0 0 Z " fill="#FDFDFD" transform="translate(214,709)"/>
<path d="M0 0 C0 0.66 0 1.32 0 2 C0.639375 2.28875 1.27875 2.5775 1.9375 2.875 C4 4 4 4 5 6 C5.09632897 7.81041793 5.12981533 9.62452753 5.125 11.4375 C5.12886719 12.88962891 5.12886719 12.88962891 5.1328125 14.37109375 C5 17 5 17 4 20 C0.9375 21.1875 0.9375 21.1875 -2 22 C-2 22.66 -2 23.32 -2 24 C-3.258125 24.020625 -4.51625 24.04125 -5.8125 24.0625 C-6.52019531 24.07410156 -7.22789063 24.08570313 -7.95703125 24.09765625 C-11.09806499 23.94751123 -12.77362074 23.1997464 -15.125 21.125 C-17.82607771 18.06377859 -18.15424966 15.50599018 -18.1875 11.5625 C-18.20167969 10.80066406 -18.21585938 10.03882813 -18.23046875 9.25390625 C-17.82324129 5.27135973 -16.03072898 2.54581234 -13 0 C-8.52745503 -1.49084832 -4.47254497 -1.49084832 0 0 Z " fill="#070707" transform="translate(1051,749)"/>
<path d="M0 0 C0.66 0 1.32 0 2 0 C2.67057887 1.7902061 3.3363469 3.58221489 4 5.375 C4.556875 6.87160156 4.556875 6.87160156 5.125 8.3984375 C6 11 6 11 6 13 C6.66 13 7.32 13 8 13 C8.66 15.64 9.32 18.28 10 21 C10.66 21 11.32 21 12 21 C13.25664978 23.90600261 14 25.79604584 14 29 C5.75 29 -2.5 29 -11 29 C-11 27.68 -11 26.36 -11 25 C-10.34 25 -9.68 25 -9 25 C-8.34 22.03 -7.68 19.06 -7 16 C-6.34 16 -5.68 16 -5 16 C-4.34 13.03 -3.68 10.06 -3 7 C-2.34 7 -1.68 7 -1 7 C-0.67 4.69 -0.34 2.38 0 0 Z " fill="#F6F6F6" transform="translate(334,711)"/>
<path d="M0 0 C0.33 0 0.66 0 1 0 C1 6.27 1 12.54 1 19 C2.32 18.67 3.64 18.34 5 18 C5 18.66 5 19.32 5 20 C4.34 20 3.68 20 3 20 C3 20.66 3 21.32 3 22 C2.01 22 1.02 22 0 22 C0 14.74 0 7.48 0 0 Z " fill="#7C7C7C" transform="translate(918,679)"/>
<path d="M0 0 C1.32 0 2.64 0 4 0 C4 5.94 4 11.88 4 18 C3.67 18 3.34 18 3 18 C2.96261719 16.94039062 2.92523437 15.88078125 2.88671875 14.7890625 C2.82106742 13.40100576 2.75461979 12.01298651 2.6875 10.625 C2.66494141 9.92632813 2.64238281 9.22765625 2.61914062 8.5078125 C2.53015704 6.22711059 2.53015704 6.22711059 2 3 C1.01 2.34 0.02 1.68 -1 1 C-0.67 0.67 -0.34 0.34 0 0 Z " fill="#464646" transform="translate(843,693)"/>
<path d="M0 0 C2.31 0 4.62 0 7 0 C6.67 0.66 6.34 1.32 6 2 C4.68 2 3.36 2 2 2 C1.67 3.32 1.34 4.64 1 6 C0.34 5.34 -0.32 4.68 -1 4 C-0.625 1.875 -0.625 1.875 0 0 Z " fill="#2F2F2F" transform="translate(1188,692)"/>
</svg>
